# xmcd
#
# Track frame offsets: 
#        150
#        14210
#        33518
#        58083
#        82527
#        82912
#        101578
#        115889
#        136878
#        151880
#        165429
#        188445
#        205543
#        224568
#        232243
#        250170
#
# Disc length: 3521 seconds
#
# Revision: 3
# Processed by: cddbd v1.5.2PL0 Copyright (c) Steve Scherf et al.
# Submitted via: ExactAudioCopy v0.99pb5
#
DISCID=ca0dbf10
DTITLE=Guy Davis - Give In Kind
DYEAR=2002
DGENRE=Blues
TTITLE0=Good Liquor
TTITLE1=Loneliest Road That I Know
TTITLE2=Lay Down By My Side
TTITLE3=I Will Be Your Friend
TTITLE4=(I Love My Job)
TTITLE5=Layla, Layla
TTITLE6=Honeydew Melon Rag
TTITLE7=Six Cold Feet Of Ground
TTITLE8=Grandma Is Dancing
TTITLE9=What You Doin'
TTITLE10=Watch Over Me
TTITLE11=I Don't Know
TTITLE12=Don't You Leave Me Here
TTITLE13=(Joppatowne Intro)
TTITLE14=Joppatowne
TTITLE15=God's Unchanging Hand
EXTD=YEAR: 2002 ID3G: 0
EXTT0=
EXTT1=
EXTT2=
EXTT3=
EXTT4=
EXTT5=
EXTT6=
EXTT7=
EXTT8=
EXTT9=
EXTT10=
EXTT11=
EXTT12=
EXTT13=
EXTT14=
EXTT15=
PLAYORDER=
